<svg xmlns="http://www.w3.org/2000/svg" viewBox="0 0 1060 1024" width="20" height="19">
	<style>
		tspan { white-space:pre }
		.shp0 { fill: #cc9760 } 
		.shp1 { fill: #ff6e83 } 
		.shp2 { fill: #fcf0e6 } 
		.shp3 { fill: #f7999f } 
		.shp4 { fill: #ffffff } 
	</style>
	<path id="Layer" class="shp0" d="M155.03 209.51C164.54 250.08 195.62 283.85 241.41 303.37C287.21 322.9 343.98 326.59 399.24 313.63C454.49 300.67 503.7 272.12 536.04 234.27C568.38 196.41 581.2 152.35 571.68 111.78C562.17 71.21 531.09 37.44 485.29 17.91C439.5 -1.61 382.73 -5.3 327.47 7.66C272.22 20.62 223.01 49.16 190.67 87.02C158.33 124.87 145.51 168.93 155.03 209.51L155.03 209.51Z" />
	<path id="Layer" class="shp0" d="M153.41 642.61C202.28 654.11 254.3 643.2 298.05 612.26C341.79 581.33 373.67 532.91 386.67 477.67C399.67 422.42 392.72 364.87 367.36 317.68C342 270.49 300.29 237.52 251.43 226.02C202.56 214.52 150.54 225.44 106.79 256.37C63.05 287.31 31.17 335.72 18.17 390.97C5.17 446.21 12.12 503.76 37.48 550.95C62.84 598.15 104.55 631.12 153.41 642.61L153.41 642.61Z" />
	<path id="Layer" class="shp0" d="M819.64 642.52C868.5 654.01 920.53 643.09 964.27 612.16C1008.01 581.23 1039.89 532.81 1052.89 477.57C1065.88 422.33 1058.94 364.78 1033.58 317.59C1008.22 270.39 966.52 237.42 917.65 225.93C868.79 214.43 816.77 225.35 773.02 256.28C729.28 287.22 697.41 335.63 684.41 390.87C671.41 446.12 678.35 503.66 703.72 550.86C729.08 598.05 770.77 631.02 819.64 642.52L819.64 642.52Z" />
	<path id="Layer" class="shp0" d="M698.93 317.21C755.46 322.21 811.14 310.51 853.71 284.69C896.28 258.87 922.25 221.04 925.92 179.52C929.59 138.01 910.65 96.21 873.27 63.32C835.89 30.43 783.12 9.15 726.59 4.16C670.06 -0.84 614.38 10.86 571.81 36.68C529.24 62.5 503.26 100.33 499.59 141.85C495.92 183.36 514.86 225.16 552.25 258.05C589.63 290.93 642.39 312.22 698.93 317.21L698.93 317.21Z" />
	<path id="Layer" class="shp1" d="M999.07 613.75C1002.78 608.94 1006.24 603.96 1009.44 598.9C1011.13 596.29 1012.81 593.76 1014.42 591.06C1016.02 588.36 1017.37 585.83 1018.8 583.13C1020.24 580.43 1022.68 575.62 1024.54 571.83C1025.47 569.8 1026.39 567.95 1027.24 565.92C1029.6 560.61 1031.71 555.04 1033.73 549.05L1035.5 543.82C1037.53 537.5 1039.47 531.09 1040.99 524.43C1042.5 517.76 1043.6 512.03 1044.53 505.87C1061.4 397.49 1002.36 295.43 905.78 272.83L900.64 271.73C902.5 268.23 904.19 264.64 905.69 260.97C907.2 257.3 908.52 253.56 909.65 249.76C910.79 245.96 911.73 242.1 912.48 238.21C913.22 234.31 913.78 230.39 914.13 226.44C921.81 139.98 832.57 61.46 714.82 51.08C641.02 44.84 573.55 66.77 531.37 105.4C487.35 56.48 398.11 19.2 315.7 54.79C228.74 92.83 246.79 219.35 143.39 256.8C136.81 259.16 147.18 270.13 149.97 276.45C82.32 297.12 25.3 357.51 6.41 438.14C4.61 445.72 3.18 453.38 2.13 461.1C1.09 468.82 0.42 476.58 0.15 484.37C-0.13 492.15 -0.02 499.94 0.48 507.72C0.98 515.49 1.86 523.23 3.12 530.92C3.12 532.1 3.12 533.2 3.71 534.29C4.3 537.41 4.89 540.45 5.57 543.57C5.57 545.26 6.33 546.95 6.75 548.55C7.17 550.15 8.01 553.36 8.69 555.72C9.36 558.08 9.87 559.85 10.54 561.87C10.67 562.33 10.8 562.77 10.93 563.22C11.07 563.67 11.21 564.11 11.35 564.56C11.5 565 11.66 565.44 11.82 565.88C11.98 566.32 12.14 566.75 12.32 567.19C13.16 569.72 14 572.16 14.93 574.61C15.35 575.71 15.77 576.72 16.28 577.82C18.85 584.32 21.77 590.67 25.02 596.86C28.27 603.05 31.85 609.06 35.74 614.87C39.62 620.68 43.82 626.28 48.3 631.64C52.79 637 57.56 642.12 62.59 646.98C67.66 651.67 72.25 656.86 76.27 662.48C80.3 668.1 83.75 674.11 86.56 680.42C89.37 686.73 91.54 693.32 93.02 700.07C94.51 706.82 95.3 713.7 95.4 720.61L95.4 812.13C95.79 834.14 99.95 855.93 107.69 876.54C115.43 897.16 126.63 916.3 140.82 933.14C155 949.98 171.96 964.27 190.97 975.39C209.97 986.52 230.73 994.31 252.36 998.44C274.7 1002.73 297.14 1006.48 319.66 1009.69C342.18 1012.89 364.77 1015.55 387.42 1017.66C410.07 1019.78 432.76 1021.34 455.48 1022.35C478.21 1023.37 500.95 1023.83 523.7 1023.75C545.78 1023.81 567.86 1023.36 589.92 1022.38C611.98 1021.41 634.02 1019.92 656.01 1017.91C678 1015.91 699.94 1013.39 721.81 1010.35C743.69 1007.32 765.49 1003.77 787.19 999.71C809.09 995.68 830.13 987.92 849.39 976.76C868.65 965.6 885.85 951.2 900.23 934.2C914.61 917.21 925.96 897.86 933.77 877.02C941.59 856.17 945.76 834.13 946.1 811.87L946.1 734.28C946.19 724.43 947.17 714.62 949.05 704.95C950.92 695.29 953.67 685.82 957.27 676.66C960.86 667.49 965.29 658.68 970.49 650.32C975.69 641.96 981.64 634.1 988.27 626.82C990.97 623.78 993.5 620.66 996.03 617.46L999.07 613.75Z" />
	<path id="Layer" class="shp2" d="M1010.96 566.43C1014.59 561.62 1018.04 556.73 1021.33 551.67C1022.94 549.05 1024.62 546.52 1026.22 543.82C1027.83 541.13 1029.18 538.6 1030.61 535.9C1032.04 533.2 1034.57 528.39 1036.35 524.51L1039.13 518.69C1041.41 513.29 1043.52 507.81 1045.54 501.82L1047.31 496.59C1049.34 490.27 1051.28 483.86 1052.79 477.19C1054.31 470.53 1055.41 464.79 1056.34 458.64C1073.2 350.25 1014.16 248.2 917.59 225.51L912.44 224.5C914.32 221 916.01 217.41 917.52 213.74C919.03 210.08 920.36 206.34 921.49 202.53C922.62 198.73 923.56 194.88 924.31 190.98C925.05 187.08 925.59 183.15 925.94 179.2C933.61 92.83 844.38 14.56 726.63 4.19C652.66 -2.39 585.1 19.54 543.18 58.17C499.15 9.25 414.98 -12.77 327.51 7.56C212.47 34.72 134.95 125.05 155.03 209.57C155.43 211.25 155.86 212.92 156.34 214.59C156.81 216.25 157.32 217.9 157.87 219.54C158.42 221.18 159.01 222.81 159.63 224.42C160.25 226.04 160.91 227.64 161.61 229.22C94.13 249.88 37.2 310.19 18.22 390.82C16.42 398.4 14.99 406.06 13.95 413.78C12.91 421.5 12.25 429.27 11.97 437.05C11.7 444.83 11.8 452.63 12.3 460.4C12.79 468.17 13.67 475.92 14.93 483.6C14.93 484.7 15.35 485.88 15.52 486.98C16.11 490.1 16.7 493.13 17.38 496.25C17.38 497.94 18.14 499.54 18.56 501.23C18.98 502.92 19.82 506.04 20.5 508.4C21.17 510.76 21.68 512.53 22.35 514.56C23.03 516.58 23.45 518.1 24.12 519.87C24.8 521.64 25.81 524.85 26.74 527.29C27.16 528.31 27.58 529.4 28.09 530.5C30.67 537 33.59 543.35 36.84 549.54C40.09 555.73 43.67 561.74 47.56 567.55C51.45 573.35 55.64 578.95 60.12 584.32C64.61 589.68 69.37 594.8 74.39 599.66C79.47 604.35 84.06 609.54 88.09 615.16C92.12 620.77 95.57 626.78 98.38 633.1C101.2 639.41 103.36 646 104.84 652.75C106.32 659.5 107.11 666.38 107.2 673.29L107.2 764.89C107.6 786.91 111.76 808.69 119.5 829.31C127.23 849.92 138.44 869.06 152.63 885.9C166.81 902.74 183.77 917.04 202.77 928.16C221.78 939.29 242.54 947.08 264.17 951.21C286.51 955.5 308.95 959.25 331.46 962.45C353.98 965.66 376.58 968.32 399.23 970.43C421.87 972.54 444.57 974.11 467.29 975.12C490.02 976.13 512.76 976.6 535.51 976.51C557.58 976.63 579.66 976.23 601.72 975.32C623.78 974.4 645.81 972.97 667.8 971.02C689.79 969.07 711.73 966.6 733.61 963.62C755.49 960.64 777.29 957.15 799 953.15C820.88 949.09 841.91 941.3 861.16 930.13C880.41 918.96 897.6 904.56 911.98 887.57C926.36 870.58 937.72 851.25 945.55 830.42C953.39 809.59 957.6 787.57 957.99 765.31L957.99 687.04C958.08 677.2 959.07 667.39 960.94 657.72C962.81 648.06 965.56 638.59 969.16 629.42C972.76 620.26 977.18 611.44 982.38 603.09C987.58 594.73 993.53 586.86 1000.16 579.59C1002.86 576.55 1005.39 573.43 1007.92 570.22L1010.96 566.43Z" />
	<path id="Layer" class="shp3" d="M228.15 200.12C229.33 158.88 251.77 107.34 298.92 83.22C351.38 56.23 413.29 73.52 448.63 103.04C532.47 173.21 509.28 349.33 438.43 380.28C367.58 411.23 225.2 308.59 228.15 200.12ZM789.55 685.36C768.97 741.78 642.12 744.4 533.65 746.08C425.18 747.77 305.41 750.22 283.48 697.08C255.4 629.6 382.25 460.91 535 459.4C684.54 457.79 814.69 616.36 789.55 685.36ZM88.99 489.25C73.21 454.5 71.44 399 108.22 364.85C144.99 330.69 199.98 335.91 233.64 354.3C302.71 391.92 321.86 506.12 276.74 547.7C231.61 589.29 121.29 560.44 88.99 489.25ZM862.34 351.86C893.8 337.01 942.81 338.19 970.39 370.67C994.51 398.92 992.07 438.98 980.17 464.96C952.76 524.68 857.28 548.72 820.59 513.63C783.9 478.54 802.04 380.28 862.34 351.86L862.34 351.86ZM634.36 105.32C674.59 75.12 745.44 60.53 794.61 97.47C835.77 128.34 845.22 182.66 839.99 220.36C825.74 323.85 685.98 404.91 621.62 368.22C557.27 331.53 549.93 168.74 634.36 105.32Z" />
	<path id="Layer" class="shp3" d="M751.94 799.64C751.94 816.91 758.8 833.47 771.01 845.69C783.22 857.9 799.78 864.76 817.05 864.76C834.32 864.76 850.88 857.9 863.09 845.69C875.3 833.47 882.16 816.91 882.16 799.64C882.16 782.37 875.3 765.81 863.09 753.6C850.88 741.39 834.32 734.53 817.05 734.53C799.78 734.53 783.22 741.39 771.01 753.6C758.8 765.81 751.94 782.37 751.94 799.64L751.94 799.64Z" />
	<path id="Layer" class="shp4" d="M818.65 799.64C818.65 807.16 821.64 814.37 826.95 819.68C832.27 825 839.48 827.98 846.99 827.98C854.51 827.98 861.72 825 867.03 819.68C872.35 814.37 875.33 807.16 875.33 799.64C875.33 792.13 872.35 784.92 867.03 779.6C861.72 774.29 854.51 771.3 846.99 771.3C839.48 771.3 832.27 774.29 826.95 779.6C821.64 784.92 818.65 792.13 818.65 799.64L818.65 799.64Z" />
	<path id="Layer" class="shp4" d="M870.78 385.85C870.78 393.36 873.76 400.57 879.08 405.89C884.39 411.2 891.6 414.19 899.12 414.19C906.63 414.19 913.84 411.2 919.16 405.89C924.47 400.57 927.46 393.36 927.46 385.85C927.46 378.33 924.47 371.12 919.16 365.81C913.84 360.49 906.63 357.51 899.12 357.51C891.6 357.51 884.39 360.49 879.08 365.81C873.76 371.12 870.78 378.33 870.78 385.85L870.78 385.85Z" />
	<path id="Layer" class="shp4" d="M666.66 126.66C666.66 134.17 669.65 141.38 674.96 146.69C680.28 152.01 687.49 155 695 155C702.52 155 709.73 152.01 715.04 146.69C720.36 141.38 723.34 134.17 723.34 126.66C723.34 119.14 720.36 111.93 715.04 106.62C709.73 101.3 702.52 98.32 695 98.32C687.49 98.32 680.28 101.3 674.96 106.62C669.65 111.93 666.66 119.14 666.66 126.66L666.66 126.66Z" />
	<path id="Layer" class="shp4" d="M254.22 155C254.22 162.51 257.2 169.72 262.52 175.03C267.83 180.35 275.04 183.34 282.56 183.34C290.07 183.34 297.28 180.35 302.6 175.03C307.91 169.72 310.9 162.51 310.9 155C310.9 147.48 307.91 140.27 302.6 134.96C297.28 129.64 290.07 126.66 282.56 126.66C275.04 126.66 267.83 129.64 262.52 134.96C257.2 140.27 254.22 147.48 254.22 155L254.22 155Z" />
	<path id="Layer" class="shp4" d="M98.94 445.06C98.94 452.57 101.92 459.78 107.24 465.1C112.55 470.41 119.76 473.4 127.28 473.4C134.79 473.4 142 470.41 147.32 465.1C152.63 459.78 155.62 452.57 155.62 445.06C155.62 437.54 152.63 430.33 147.32 425.02C142 419.7 134.79 416.72 127.28 416.72C119.76 416.72 112.55 419.7 107.24 425.02C101.92 430.33 98.94 437.54 98.94 445.06L98.94 445.06Z" />
</svg>