<?xml version="1.0" standalone="no"?><!DOCTYPE svg PUBLIC "-//W3C//DTD SVG 1.1//EN" "http://www.w3.org/Graphics/SVG/1.1/DTD/svg11.dtd"><svg t="1701609619007" class="icon" viewBox="0 0 1024 1024" version="1.1" xmlns="http://www.w3.org/2000/svg" p-id="21137" width="20" height="20" xmlns:xlink="http://www.w3.org/1999/xlink"><path d="M513.4848 932.7616c-230.7584 0-418.4576-187.6992-418.4576-418.4576s187.6992-418.4576 418.4576-418.4576 418.4576 187.6992 418.4576 418.4576-187.6992 418.4576-418.4576 418.4576z m0-775.424c-196.864 0-357.0176 160.1536-357.0176 357.0176s160.1536 357.0176 357.0176 357.0176 357.0176-160.1536 357.0176-357.0176-160.1536-357.0176-357.0176-357.0176z" fill="#444444" p-id="21138"></path><path d="M731.3408 418.6624c-1.28-0.7168-128.5632-74.9056-190.7712-151.7056a28.26752 28.26752 0 0 0-22.6304-10.4448c-8.7552 0.2048-16.896 4.5056-22.016 11.5712-63.488 87.0912-184.832 148.7872-186.7776 149.76a28.14464 28.14464 0 0 0-12.5952 37.7856 28.11904 28.11904 0 0 0 25.1904 15.5648c4.2496 0 8.5504-0.9728 12.5952-2.9696 4.9664-2.5088 111.872-56.576 185.3952-139.9808 71.5264 74.0352 178.3808 136.2944 183.3984 139.1616a28.2112 28.2112 0 0 0 38.5024-10.2912c7.7312-13.4656 3.1744-30.6688-10.2912-38.4512z" fill="#50DEFF" p-id="21139"></path><path d="M698.5216 659.8144h-139.6736v-98.5088h112.0256c15.5648 0 28.16-12.5952 28.16-28.16s-12.5952-28.16-28.16-28.16h-112.0256V421.632c0-15.5648-12.5952-28.16-28.16-28.16s-28.16 12.5952-28.16 28.16v238.1824H433.3056V492.032c0-15.5648-12.5952-28.16-28.16-28.16s-28.16 12.5952-28.16 28.16v167.8336H336.896c-15.5648 0-28.16 12.5952-28.16 28.16s12.5952 28.16 28.16 28.16h361.6256c15.5648 0 28.16-12.5952 28.16-28.16s-12.5952-28.2112-28.16-28.2112z" fill="#50DEFF" p-id="21140"></path></svg>