<svg id="在线客服" xmlns="http://www.w3.org/2000/svg" width="40.343" height="38.031" viewBox="0 0 40.343 38.031">
  <defs>
    <style>
      .cls-1, .cls-2 {
        fill: #fff;
        fill-rule: evenodd;
      }

      .cls-2 {
        opacity: 0.5;
      }
    </style>
  </defs>
  <path id="形状_30" data-name="形状 30" class="cls-1" d="M465.108,551.252a2.6,2.6,0,0,1-2.525-1.79v-0.437a2.808,2.808,0,0,1-.063-0.374v-6.878c0.007-.207.007-0.415,0-0.622a9.329,9.329,0,0,0-18.648.622v6.9a9.417,9.417,0,0,0,6.734,9.041s0-.007.007-0.01a9.036,9.036,0,0,0,2.557.374,2.6,2.6,0,1,1,0,5.2,13.882,13.882,0,0,1-3.014-.331c0,0.006,0,.013.008,0.019a14.611,14.611,0,0,1-9.392-6.722h0.251a7.88,7.88,0,0,0,1.649-.166,1.354,1.354,0,0,0,1.043-1.311L443.8,541.6l-0.094,13.173a1.355,1.355,0,0,1-1.044,1.311,7.85,7.85,0,0,1-1.691.114h-0.25a14.579,14.579,0,0,1-2.087-7.575v-6.877c0-.448.073-0.885,0.073-1.322a14.519,14.519,0,0,1,28.938,0h-0.083a7.97,7.97,0,0,0-3.934-.156,7.949,7.949,0,0,1,3.934.188h0.083a7.958,7.958,0,0,1,.073,1.321v6.878A2.605,2.605,0,0,1,465.108,551.252Z" transform="translate(-432.969 -527.094)"/>
  <path id="形状_30_拷贝" data-name="形状 30 拷贝" class="cls-2" d="M465.307,556.048a7.6,7.6,0,0,1-1.628-.156,1.332,1.332,0,0,1-1.044-1.3v-5.13l5.082-7.689-5.134,7.689v-7.876a1.333,1.333,0,0,1,1.044-1.322,7.949,7.949,0,0,1,3.934.188h0.083A7.969,7.969,0,0,1,465.307,556.048Zm-15.163,6.909a13.809,13.809,0,0,0,3.026.333h0.021a2.594,2.594,0,0,0,2.588-2.6s0,0,0,0a2.6,2.6,0,0,1-2.608,2.6,13.931,13.931,0,0,1-3.026-.333,4.4,4.4,0,0,1-.439-3.652,4.293,4.293,0,0,1,.908-1.592c0.014,0,.029,0,0.044.009A4.435,4.435,0,1,1,450.144,562.957Zm-7.483-6.877a7.85,7.85,0,0,1-1.691.114h-0.182l0,0.031a8.06,8.06,0,0,1-2.089-15.773c0-.01,0-0.021,0-0.032h0.063a8.024,8.024,0,0,1,3.986-.145A1.353,1.353,0,0,1,443.8,541.6l-0.094,13.173A1.355,1.355,0,0,1,442.661,556.08Zm-4.028-14.335v0.028l0.133,0.892Z" transform="translate(-432.969 -527.094)"/>
</svg>
