<svg xmlns="http://www.w3.org/2000/svg" width="12.34" height="11.13" viewBox="0 0 12.34 11.13">
  <defs>
    <style>
      .cls-1 {
        fill: #5a606c;
        fill-rule: evenodd;
      }
    </style>
  </defs>
  <path id="pc" class="cls-1" d="M1407.26,5158.73a0.985,0.985,0,0,0,.95.96h4.86v1.46h-1.86a0.381,0.381,0,0,0,0,.76h4.44a0.381,0.381,0,0,0,0-.76h-1.86v-1.46h4.86a0.985,0.985,0,0,0,.95-0.96v-0.88h-12.34v0.88Zm11.39-7.95h-10.44a0.972,0.972,0,0,0-.95.99v5.22h12.34v-5.22A0.965,0.965,0,0,0,1418.65,5150.78Z" transform="translate(-1407.25 -5150.78)"/>
</svg>
