<?xml version="1.0" encoding="UTF-8"?>
<svg width="190px" height="109px" viewBox="0 0 190 109" version="1.1" xmlns="http://www.w3.org/2000/svg" xmlns:xlink="http://www.w3.org/1999/xlink">
    <!-- Generator: Sketch 52.6 (67491) - http://www.bohemiancoding.com/sketch -->
    <title>Group 3</title>
    <desc>Created with Sketch.</desc>
    <defs>
        <linearGradient x1="-2.22044605e-14%" y1="50%" x2="72.4901018%" y2="35.41431%" id="linearGradient-1">
            <stop stop-color="#1F2436" offset="0%"></stop>
            <stop stop-color="#191F31" offset="100%"></stop>
        </linearGradient>
        <linearGradient x1="100%" y1="50%" x2="0%" y2="50%" id="linearGradient-2">
            <stop stop-color="#3B455D" offset="0%"></stop>
            <stop stop-color="#24304E" offset="100%"></stop>
        </linearGradient>
        <linearGradient x1="100%" y1="50%" x2="0%" y2="50%" id="linearGradient-3">
            <stop stop-color="#5D6880" offset="0%"></stop>
            <stop stop-color="#2E3547" offset="100%"></stop>
        </linearGradient>
    </defs>
    <g id="联系我们" stroke="none" stroke-width="1" fill="none" fill-rule="evenodd">
        <g id="2560-copy-6" transform="translate(-1431.000000, -512.000000)" fill-rule="nonzero">
            <g id="Group-2" transform="translate(0.000000, 40.000000)">
                <g id="Group" transform="translate(0.000000, 20.000000)">
                    <g id="深色底" transform="translate(0.000000, 13.000000)">
                        <g id="Group-3" transform="translate(1431.000000, 439.000000)">
                            <polygon id="Polygon" fill="url(#linearGradient-1)" points="95 38.1467181 190 93 190 112 2.27373675e-13 112 2.27373675e-13 93"></polygon>
                            <path d="M142,36 L12,112" id="Line" stroke="#4F6179" opacity="0.300000012" stroke-linecap="square"></path>
                            <polygon id="Polygon-Copy" fill="url(#linearGradient-2)" opacity="0.900000036" points="146.266968 16.0617761 159.198569 23.5907336 159.198569 38.6486486 146.266968 46.1776062 133.335367 38.6486486 133.335367 23.5907336"></polygon>
                            <path d="M129.343891,15.0579151 L149.172346,26.6023166 L149.172346,49.6911197 L129.343891,61.2355212 L109.515436,49.6911197 L109.515436,26.6023166 L129.343891,15.0579151 Z" id="Polygon-Copy" stroke="#4F6179" stroke-dasharray="2"></path>
                            <ellipse id="Oval" fill="url(#linearGradient-3)" cx="181.108597" cy="5.01930502" rx="4.97737557" ry="5.01930502"></ellipse>
                        </g>
                    </g>
                </g>
            </g>
        </g>
    </g>
</svg>