<?xml version="1.0" encoding="UTF-8"?>
<svg width="18px" height="18px" viewBox="0 0 18 18" version="1.1" xmlns="http://www.w3.org/2000/svg" xmlns:xlink="http://www.w3.org/1999/xlink">
    <title>icon备份 2</title>
    <g id="icon备份-2" stroke="none" stroke-width="1" fill="none" fill-rule="evenodd">
        <g id="编组">
            <rect id="矩形" x="0" y="0" width="18" height="18"></rect>
            <path d="M6.40812447,6.41327123 L8.31123847,4.47807778 C7.94104925,3.62194282 7.48755377,2.88517705 6.95075203,2.26778048 C6.41395029,1.65038391 5.73377891,1.13614127 4.91023788,0.72505256 L0.553262148,4.47807778 C1.73258205,8.42512955 3.1849073,11.3322129 4.91023788,13.1993277 C6.63556847,15.0664426 9.42090437,16.4870026 13.2662456,17.4610078 L17.3002375,13.6936965 C16.9718884,12.7629339 16.5384759,11.979021 16,11.3419576 C15.4615241,10.7048943 14.791997,10.1658176 13.9914187,9.72472761 L11.547253,11.5673387 C10.2955141,11.3483477 9.21684257,10.734144 8.31123847,9.72472761 C7.40563437,8.71531125 6.77126304,7.61149246 6.40812447,6.41327123 Z" id="路径-3" stroke="#000000" stroke-linejoin="round" fill-rule="nonzero"></path>
        </g>
    </g>
</svg>